<?xml version="1.0" encoding="UTF-8" standalone="no"?>
<!DOCTYPE svg PUBLIC "-//W3C//DTD SVG 1.1//EN" "http://www.w3.org/Graphics/SVG/1.1/DTD/svg11.dtd">
<svg version="1.1" xmlns="http://www.w3.org/2000/svg" xmlns:xlink="http://www.w3.org/1999/xlink" preserveAspectRatio="xMidYMid meet" viewBox="0 0 640 640" width="640" height="640"><defs><path d="M410.43 228.25C410.43 263.77 439.33 292.67 474.85 292.67C510.37 292.67 539.27 263.77 539.27 228.25C539.27 192.73 510.37 163.83 474.85 163.83C439.33 163.83 410.43 192.73 410.43 228.25ZM435.43 228.25C435.43 206.51 453.11 188.83 474.85 188.83C496.59 188.83 514.27 206.51 514.27 228.25C514.27 249.99 496.59 267.67 474.85 267.67C453.11 267.67 435.43 249.99 435.43 228.25Z" id="j12liBcxgn"></path><path d="M474.14 561.81C473.69 561.13 473.16 560.49 472.59 559.91C472.01 559.34 471.37 558.81 470.69 558.36C470.01 557.91 469.29 557.53 468.53 557.21C467.78 556.9 466.99 556.65 466.19 556.5C464.57 556.18 462.92 556.18 461.31 556.5C460.51 556.65 459.73 556.9 458.98 557.21C458.21 557.53 457.49 557.91 456.81 558.36C456.13 558.81 455.49 559.34 454.91 559.91C454.34 560.49 453.81 561.13 453.36 561.81C452.91 562.49 452.53 563.21 452.21 563.98C451.9 564.73 451.65 565.51 451.5 566.31C451.34 567.11 451.25 567.94 451.25 568.75C451.25 569.56 451.34 570.39 451.5 571.19C451.65 571.99 451.9 572.78 452.21 573.53C452.53 574.29 452.91 575.01 453.36 575.69C453.81 576.38 454.34 577.01 454.91 577.59C455.2 577.88 455.5 578.15 455.82 578.41C456.14 578.67 456.47 578.91 456.81 579.14C457.49 579.59 458.21 579.98 458.98 580.29C459.73 580.6 460.51 580.85 461.31 581C462.11 581.16 462.94 581.25 463.75 581.25C464.56 581.25 465.39 581.16 466.19 581C466.99 580.85 467.78 580.6 468.53 580.29C469.29 579.98 470.01 579.59 470.69 579.14C471.03 578.91 471.37 578.67 471.68 578.41C472 578.15 472.3 577.88 472.59 577.59C473.16 577.01 473.69 576.38 474.14 575.69C474.59 575.01 474.98 574.29 475.29 573.53C475.6 572.78 475.85 571.99 476.01 571.19C476.18 570.39 476.25 569.56 476.25 568.75C476.25 567.94 476.18 567.11 476.01 566.31C475.85 565.51 475.6 564.72 475.29 563.98C474.98 563.21 474.59 562.49 474.14 561.81Z" id="a1YNJNRej7"></path><path d="M277.41 67.15C276.96 66.48 276.44 65.83 275.86 65.25C275.29 64.68 274.65 64.15 273.96 63.7C273.29 63.25 272.56 62.86 271.8 62.55C271.05 62.24 270.26 62 269.46 61.84C267.85 61.51 266.2 61.51 264.59 61.84C263.79 62 263 62.24 262.24 62.55C261.49 62.86 260.76 63.25 260.09 63.7C259.4 64.15 258.76 64.68 258.19 65.25C257.61 65.83 257.09 66.48 256.63 67.15C256.17 67.84 255.8 68.56 255.49 69.31C255.18 70.06 254.93 70.85 254.77 71.65C254.61 72.46 254.53 73.28 254.53 74.1C254.53 74.91 254.61 75.73 254.77 76.54C254.93 77.34 255.18 78.13 255.49 78.88C255.8 79.63 256.18 80.35 256.63 81.04C257.09 81.71 257.61 82.36 258.19 82.94C258.76 83.51 259.4 84.04 260.09 84.49C260.76 84.94 261.49 85.33 262.24 85.64C263 85.95 263.79 86.19 264.59 86.35C265.39 86.51 266.21 86.6 267.02 86.6C267.84 86.6 268.66 86.51 269.46 86.35C270.26 86.19 271.05 85.95 271.8 85.64C272.56 85.33 273.29 84.94 273.96 84.49C274.65 84.04 275.29 83.51 275.86 82.94C276.44 82.36 276.96 81.71 277.41 81.04C277.86 80.35 278.25 79.63 278.56 78.88C278.87 78.13 279.12 77.34 279.27 76.54C279.44 75.73 279.52 74.91 279.52 74.1C279.52 73.28 279.44 72.46 279.27 71.65C279.13 70.85 278.88 70.06 278.56 69.31C278.25 68.56 277.86 67.84 277.41 67.15Z" id="b1IkaX0N0"></path><path d="M500.22 6.3C461 6.3 147.24 6.3 108.02 6.3C48.46 6.3 0 54.76 0 114.32C0 153.54 0 467.3 0 506.52C0 545.47 31.15 577.26 69.84 578.35C77.34 610.04 105.84 633.7 139.79 633.7C182.62 633.7 525.28 633.7 568.11 633.7C607.75 633.7 640 601.45 640 561.81C640 555.52 640 524.08 640 467.49C640 267.08 640 155.75 640 133.48C640 94.53 608.85 62.74 570.16 61.65C562.67 29.96 534.16 6.3 500.22 6.3ZM568.11 608.7C525.28 608.7 182.62 608.7 139.79 608.7C119.77 608.7 102.66 596.09 95.94 578.41C93.98 573.25 92.9 567.65 92.9 561.81C92.9 561.25 92.9 558.45 92.9 553.41L92.9 495.5C178.94 349.6 226.74 268.55 236.3 252.34C240.67 244.94 248.46 240.62 257 240.75C265.59 240.9 273.18 245.49 277.29 253.04C281.4 260.6 301.98 298.39 339.03 366.42C392.88 465.3 422.8 520.24 428.78 531.22C431.05 535.39 435.34 537.75 439.77 537.75C441.79 537.75 443.84 537.26 445.74 536.22C451.8 532.92 454.04 525.33 450.74 519.27C447.83 513.92 424.53 471.13 421.61 465.78C434.4 466.37 446.98 462.23 457 453.92C462.62 449.26 507.59 411.96 513.21 407.29C522.22 399.81 535.54 400.14 544.17 408.06C544.37 408.24 545.34 409.13 547.11 410.75L572.11 433.66L615 472.99L615 561.81C600.98 593.07 585.35 608.7 568.11 608.7ZM572.1 399.75C557.1 388.33 548.77 381.98 547.1 380.71C530.81 373.9 511.45 376.27 497.25 388.05C491.62 392.71 446.65 430.02 441.03 434.68C434.85 439.81 426.78 441.89 418.89 440.37C411 438.85 404.27 433.94 400.43 426.88C397.8 422.05 384.65 397.91 360.99 354.46L338.96 314.02L338.96 314.02C315.13 270.26 301.89 245.95 299.24 241.08C290.77 225.53 275.14 216.06 257.43 215.76C239.72 215.48 223.77 224.38 214.77 239.64C206.65 253.42 166.02 322.3 92.9 446.28C92.9 258.6 92.9 154.33 92.9 133.48C92.9 107.63 113.93 86.59 139.78 86.59C147.51 86.59 209.3 86.59 217.02 86.59C223.93 86.59 229.52 81 229.52 74.09C229.52 67.19 223.93 61.59 217.02 61.59C209.3 61.59 147.51 61.59 139.78 61.59C100.15 61.59 67.9 93.84 67.9 133.48C67.9 157.39 67.9 276.92 67.9 492.08C67.9 528.77 67.9 549.15 67.9 553.22C43.91 551.19 25 531.03 25 506.52C25 467.3 25 153.54 25 114.32C25 68.55 62.24 31.3 108.02 31.3C147.24 31.3 461 31.3 500.22 31.3C520.23 31.3 537.34 43.91 544.06 61.6C521.36 61.6 339.73 61.6 317.02 61.6C310.12 61.6 304.52 67.19 304.52 74.1C304.52 81 310.12 86.6 317.02 86.6C332.36 86.6 409.06 86.6 547.1 86.6C562.1 86.7 570.44 86.77 572.1 86.78C596.1 88.81 615 108.97 615 133.48C615 153.85 615 255.72 615 439.07L572.1 399.75Z" id="a1DklG9AXX"></path></defs><g><g><g><use xlink:href="#j12liBcxgn" opacity="1" fill="#64ffda" fill-opacity="1"></use><g><use xlink:href="#j12liBcxgn" opacity="1" fill-opacity="0" stroke="#000000" stroke-width="1" stroke-opacity="0"></use></g></g><g><use xlink:href="#a1YNJNRej7" opacity="1" fill="#64ffda" fill-opacity="1"></use><g><use xlink:href="#a1YNJNRej7" opacity="1" fill-opacity="0" stroke="#000000" stroke-width="1" stroke-opacity="0"></use></g></g><g><use xlink:href="#b1IkaX0N0" opacity="1" fill="#64ffda" fill-opacity="1"></use><g><use xlink:href="#b1IkaX0N0" opacity="1" fill-opacity="0" stroke="#000000" stroke-width="1" stroke-opacity="0"></use></g></g><g><use xlink:href="#a1DklG9AXX" opacity="1" fill="#64ffda" fill-opacity="1"></use><g><use xlink:href="#a1DklG9AXX" opacity="1" fill-opacity="0" stroke="#000000" stroke-width="1" stroke-opacity="0"></use></g></g></g></g></svg>