<?xml version="1.0" encoding="UTF-8" standalone="no"?>
<!DOCTYPE svg PUBLIC "-//W3C//DTD SVG 1.1//EN" "http://www.w3.org/Graphics/SVG/1.1/DTD/svg11.dtd">
<svg version="1.1" xmlns="http://www.w3.org/2000/svg" xmlns:xlink="http://www.w3.org/1999/xlink" preserveAspectRatio="xMidYMid meet" viewBox="0 0 42 46" width="42" height="46"><defs><path d="M24.59 18.5C26.28 16.09 27.29 13.1 27.29 10.52C27.29 5.27 23.02 1 17.77 1C12.52 1 8.25 5.27 8.25 10.52C8.25 13.1 9.26 16.09 10.95 18.5C12.87 21.23 15.29 22.73 17.77 22.73C20.25 22.73 22.67 21.23 24.59 18.5ZM25.74 10.52C25.74 12.76 24.81 15.48 23.32 17.61C21.72 19.88 19.7 21.18 17.77 21.18C15.84 21.18 13.81 19.88 12.22 17.61C10.73 15.48 9.8 12.76 9.8 10.52C9.8 6.13 13.37 2.55 17.77 2.55C22.16 2.55 25.74 6.13 25.74 10.52Z" id="c2HaSZcffd"></path><path d="M21.48 41.2C21.47 41.18 21.47 41.19 21.48 41.2C21.19 41 20.77 41.04 20.52 41.28C20.29 41.5 20.22 41.84 20.33 42.13C20.44 42.41 20.72 42.61 21.02 42.62C21.36 42.63 21.67 42.42 21.78 42.11C21.91 41.78 21.78 41.4 21.49 41.2C21.5 41.21 21.51 41.21 21.48 41.2Z" id="d1o2V3hHew"></path><path d="M30.67 25.55C29.11 23.62 27.12 22.05 24.89 20.98C24.59 20.84 24.24 20.9 24.01 21.13C22.14 23 19.98 23.99 17.77 23.99C15.55 23.99 13.4 23 11.53 21.13C11.29 20.9 10.94 20.84 10.65 20.98C7.85 22.31 5.49 24.39 3.81 26.99C2.09 29.67 1.18 32.77 1.18 35.97C1.18 35.97 1.18 35.98 1.18 35.98C1.18 36.2 1.27 36.41 1.43 36.55C5.91 40.62 11.71 42.85 17.77 42.85C18.09 42.85 18.41 42.85 18.73 42.84C19.16 42.82 19.49 42.46 19.47 42.03C19.46 41.6 19.09 41.27 18.67 41.28C18.37 41.3 18.07 41.3 17.77 41.3C12.22 41.3 6.89 39.29 2.74 35.63C2.8 32.85 3.62 30.16 5.12 27.83C6.54 25.62 8.51 23.83 10.84 22.62C12.91 24.53 15.3 25.54 17.77 25.54C20.24 25.54 22.62 24.53 24.7 22.62C26.23 23.42 27.63 24.49 28.81 25.76C24.24 26.73 20.81 30.79 20.81 35.64C20.81 41.2 25.33 45.73 30.9 45.73C36.46 45.73 40.99 41.2 40.99 35.64C40.99 30.07 36.46 25.54 30.9 25.54C30.82 25.54 30.75 25.55 30.67 25.55ZM22.36 35.64C22.36 30.93 26.19 27.1 30.9 27.1C35.61 27.1 39.44 30.93 39.44 35.64C39.44 40.35 35.61 44.18 30.9 44.18C26.19 44.18 22.36 40.35 22.36 35.64Z" id="c20gdrrA8w"></path><path d="M31.67 34.86C31.67 31.46 31.67 29.57 31.67 29.2C31.67 28.77 31.33 28.42 30.9 28.42C30.47 28.42 30.12 28.77 30.12 29.2C30.12 29.57 30.12 31.46 30.12 34.86C26.72 34.86 24.83 34.86 24.46 34.86C24.03 34.86 23.68 35.21 23.68 35.64C23.68 36.07 24.03 36.41 24.46 36.41C24.83 36.41 26.72 36.41 30.12 36.41C30.12 39.81 30.12 41.7 30.12 42.08C30.12 42.51 30.47 42.85 30.9 42.85C31.33 42.85 31.67 42.51 31.67 42.08C31.67 41.7 31.67 39.81 31.67 36.41C35.07 36.41 36.96 36.41 37.34 36.41C37.77 36.41 38.12 36.07 38.12 35.64C38.12 35.21 37.77 34.86 37.34 34.86C36.58 34.86 34.7 34.86 31.67 34.86Z" id="bxStFipqQ"></path></defs><g><g><g><use xlink:href="#c2HaSZcffd" opacity="1" fill="#64ffda" fill-opacity="1"></use><g><use xlink:href="#c2HaSZcffd" opacity="1" fill-opacity="0" stroke="#000000" stroke-width="1" stroke-opacity="0"></use></g></g><g><use xlink:href="#d1o2V3hHew" opacity="1" fill="#64ffda" fill-opacity="1"></use><g><use xlink:href="#d1o2V3hHew" opacity="1" fill-opacity="0" stroke="#000000" stroke-width="1" stroke-opacity="0"></use></g></g><g><use xlink:href="#c20gdrrA8w" opacity="1" fill="#64ffda" fill-opacity="1"></use><g><use xlink:href="#c20gdrrA8w" opacity="1" fill-opacity="0" stroke="#000000" stroke-width="1" stroke-opacity="0"></use></g></g><g><use xlink:href="#bxStFipqQ" opacity="1" fill="#64ffda" fill-opacity="1"></use><g><use xlink:href="#bxStFipqQ" opacity="1" fill-opacity="0" stroke="#000000" stroke-width="1" stroke-opacity="0"></use></g></g></g></g></svg>