<?xml version="1.0" encoding="UTF-8" standalone="no"?>
<!DOCTYPE svg PUBLIC "-//W3C//DTD SVG 1.1//EN" "http://www.w3.org/Graphics/SVG/1.1/DTD/svg11.dtd">
<svg version="1.1" xmlns="http://www.w3.org/2000/svg" xmlns:xlink="http://www.w3.org/1999/xlink" preserveAspectRatio="xMidYMid meet" viewBox="0 0 229 167" width="229" height="167"><defs><path d="M224.47 159.5C227.82 155.5 229.22 150.25 228.31 145.11C221.74 108.05 190.18 81.15 153.26 81.15C116.34 81.15 84.78 108.05 78.22 145.11C77.3 150.25 78.7 155.5 82.05 159.5C85.37 163.46 90.2 165.74 95.32 165.74C118.5 165.74 199.61 165.74 211.2 165.74C216.32 165.74 221.16 163.46 224.47 159.5Z" id="b1Td5aUVxp"></path><path d="M224.47 159.5C227.82 155.5 229.22 150.25 228.31 145.11C221.74 108.05 190.18 81.15 153.26 81.15C116.34 81.15 84.78 108.05 78.22 145.11C77.3 150.25 78.7 155.5 82.05 159.5C85.37 163.46 90.2 165.74 95.32 165.74C118.5 165.74 199.61 165.74 211.2 165.74C216.32 165.74 221.16 163.46 224.47 159.5Z" id="arLGw5rSN"></path><path d="M93.67 76.07C97.42 78.48 100.88 81.29 104 84.44C85.78 96.88 71.36 115.13 67.34 135.09C62.27 135.09 21.69 135.09 16.62 135.09C12.21 135.09 8.04 133.14 5.19 129.73C2.31 126.29 1.11 121.78 1.9 117.36C7.11 87.95 32.16 66.6 61.47 66.6C72.9 66.6 84.04 69.88 93.67 76.07Z" id="a15mTgcGk"></path><path d="M93.67 76.07C97.42 78.48 100.88 81.29 104 84.44C85.78 96.88 71.36 115.13 67.34 135.09C62.27 135.09 21.69 135.09 16.62 135.09C12.21 135.09 8.04 133.14 5.19 129.73C2.31 126.29 1.11 121.78 1.9 117.36C7.11 87.95 32.16 66.6 61.47 66.6C72.9 66.6 84.04 69.88 93.67 76.07Z" id="aj2WmkPNB"></path><path d="M107.68 47.95C107.68 22.3 128.13 1.44 153.26 1.44C178.39 1.44 198.84 22.3 198.84 47.95C198.84 58.87 195.14 68.91 188.95 76.85C178.25 71.07 166.08 67.82 153.26 67.82C140.44 67.82 128.28 71.07 117.57 76.85C111.38 68.91 107.68 58.87 107.68 47.95Z" id="b2d0w84cPa"></path><path d="M107.68 47.95C107.68 22.3 128.13 1.44 153.26 1.44C178.39 1.44 198.84 22.3 198.84 47.95C198.84 58.87 195.14 68.91 188.95 76.85C178.25 71.07 166.08 67.82 153.26 67.82C140.44 67.82 128.28 71.07 117.57 76.85C111.38 68.91 107.68 58.87 107.68 47.95Z" id="b2XXkm4hWX"></path><path d="M24.68 42.41C24.68 21.73 41.18 4.9 61.47 4.9C81.75 4.9 98.25 21.73 98.25 42.41C98.25 49.65 96.23 56.42 92.72 62.16C83.31 56.35 72.53 53.28 61.47 53.28C50.1 53.28 39.37 56.49 30.2 62.14C26.7 56.41 24.68 49.64 24.68 42.41Z" id="bnmP795gc"></path><path d="M24.68 42.41C24.68 21.73 41.18 4.9 61.47 4.9C81.75 4.9 98.25 21.73 98.25 42.41C98.25 49.65 96.23 56.42 92.72 62.16C83.31 56.35 72.53 53.28 61.47 53.28C50.1 53.28 39.37 56.49 30.2 62.14C26.7 56.41 24.68 49.64 24.68 42.41Z" id="agEhiTMvd"></path></defs><g><g><g><use xlink:href="#b1Td5aUVxp" opacity="1" fill="#cfcfcf" fill-opacity="1"></use><g><use xlink:href="#b1Td5aUVxp" opacity="1" fill-opacity="0" stroke="#000000" stroke-width="1" stroke-opacity="0"></use></g></g><g><use xlink:href="#arLGw5rSN" opacity="1" fill="#cfcfcf" fill-opacity="1"></use><g><use xlink:href="#arLGw5rSN" opacity="1" fill-opacity="0" stroke="#000000" stroke-width="1" stroke-opacity="0"></use></g></g><g><use xlink:href="#a15mTgcGk" opacity="1" fill="#cfcfcf" fill-opacity="1"></use><g><use xlink:href="#a15mTgcGk" opacity="1" fill-opacity="0" stroke="#000000" stroke-width="1" stroke-opacity="0"></use></g></g><g><use xlink:href="#aj2WmkPNB" opacity="1" fill="#cfcfcf" fill-opacity="1"></use><g><use xlink:href="#aj2WmkPNB" opacity="1" fill-opacity="0" stroke="#000000" stroke-width="1" stroke-opacity="0"></use></g></g><g><use xlink:href="#b2d0w84cPa" opacity="1" fill="#cfcfcf" fill-opacity="1"></use><g><use xlink:href="#b2d0w84cPa" opacity="1" fill-opacity="0" stroke="#000000" stroke-width="1" stroke-opacity="0"></use></g></g><g><use xlink:href="#b2XXkm4hWX" opacity="1" fill="#cfcfcf" fill-opacity="1"></use><g><use xlink:href="#b2XXkm4hWX" opacity="1" fill-opacity="0" stroke="#000000" stroke-width="1" stroke-opacity="0"></use></g></g><g><use xlink:href="#bnmP795gc" opacity="1" fill="#cfcfcf" fill-opacity="1"></use><g><use xlink:href="#bnmP795gc" opacity="1" fill-opacity="0" stroke="#000000" stroke-width="1" stroke-opacity="0"></use></g></g><g><use xlink:href="#agEhiTMvd" opacity="1" fill="#cfcfcf" fill-opacity="1"></use><g><use xlink:href="#agEhiTMvd" opacity="1" fill-opacity="0" stroke="#000000" stroke-width="1" stroke-opacity="0"></use></g></g></g></g></svg>