<?xml version="1.0" encoding="UTF-8" standalone="no"?>
<!DOCTYPE svg PUBLIC "-//W3C//DTD SVG 1.1//EN" "http://www.w3.org/Graphics/SVG/1.1/DTD/svg11.dtd">
<svg version="1.1" xmlns="http://www.w3.org/2000/svg" xmlns:xlink="http://www.w3.org/1999/xlink" preserveAspectRatio="xMidYMid meet" viewBox="0 0 163 167" width="163" height="167"><defs><path d="M23.48 21.84C8.34 35.35 0 53.34 0 72.5C0 87.71 5.23 102.18 15.14 114.42C14.23 119.18 6.92 157.27 6 162.04C5.73 163.47 6.67 164.86 8.1 165.14C8.67 165.25 9.26 165.17 9.78 164.91C14.57 162.54 52.85 143.58 57.64 141.21C64.87 143.07 72.31 144.01 79.77 144C101.03 144 121.02 136.6 136.07 123.16C151.21 109.65 159.55 91.66 159.55 72.5C159.55 53.34 151.21 35.35 136.07 21.84C121.02 8.4 101.03 1 79.77 1C58.52 1 38.53 8.4 23.48 21.84ZM56.18 136.02C53.25 137.47 38.59 144.73 12.21 157.8C17.23 131.64 20.02 117.1 20.58 114.2C20.73 113.41 20.52 112.61 20 112C10.38 100.52 5.3 86.86 5.3 72.5C5.3 35.99 38.71 6.3 79.77 6.3C120.84 6.3 154.25 35.99 154.25 72.5C154.25 109 120.84 138.7 79.77 138.7C72.44 138.71 65.13 137.75 58.05 135.84C57.42 135.67 56.76 135.73 56.18 136.02Z" id="b5mQYXG8G4"></path><path d="M23.48 21.84C8.34 35.35 0 53.34 0 72.5C0 87.71 5.23 102.18 15.14 114.42C14.23 119.18 6.92 157.27 6 162.04C5.73 163.47 6.67 164.86 8.1 165.14C8.67 165.25 9.26 165.17 9.78 164.91C14.57 162.54 52.85 143.58 57.64 141.21C64.87 143.07 72.31 144.01 79.77 144C101.03 144 121.02 136.6 136.07 123.16C151.21 109.65 159.55 91.66 159.55 72.5C159.55 53.34 151.21 35.35 136.07 21.84C121.02 8.4 101.03 1 79.77 1C58.52 1 38.53 8.4 23.48 21.84ZM56.18 136.02C53.25 137.47 38.59 144.73 12.21 157.8C17.23 131.64 20.02 117.1 20.58 114.2C20.73 113.41 20.52 112.61 20 112C10.38 100.52 5.3 86.86 5.3 72.5C5.3 35.99 38.71 6.3 79.77 6.3C120.84 6.3 154.25 35.99 154.25 72.5C154.25 109 120.84 138.7 79.77 138.7C72.44 138.71 65.13 137.75 58.05 135.84C57.42 135.67 56.76 135.73 56.18 136.02Z" id="c1iqXUaj6r"></path><path d="M108.62 130.93C82.53 130.93 61.35 105.11 61.35 73.31C61.35 41.51 82.53 15.68 108.62 15.68C134.7 15.68 155.88 41.51 155.88 73.31C155.88 105.11 134.7 130.93 108.62 130.93Z" id="eUKRGgTiQ"></path><path d="M79.8 132.51C37.8 132.51 3.71 112.46 3.71 87.76C3.71 63.06 37.8 43.01 79.8 43.01C121.79 43.01 155.88 63.06 155.88 87.76C155.88 112.46 121.79 132.51 79.8 132.51Z" id="b2fPyIrjY9"></path><path d="M79.12 85.37C41.73 85.37 11.37 67.56 11.37 45.62C11.37 23.68 41.73 5.87 79.12 5.87C116.51 5.87 146.87 23.68 146.87 45.62C146.87 67.56 116.51 85.37 79.12 85.37Z" id="c4coIP2SNE"></path><path d="M50.98 130.93C24.89 130.93 3.71 105.11 3.71 73.31C3.71 41.51 24.89 15.68 50.98 15.68C77.06 15.68 98.24 41.51 98.24 73.31C98.24 105.11 77.06 130.93 50.98 130.93Z" id="a3ZZTEBzsj"></path><path d="M80.11 64.56C84.49 64.56 88.05 68.11 88.05 72.5C88.05 76.88 84.49 80.44 80.11 80.44C75.72 80.44 72.16 76.89 72.16 72.5C72.16 68.11 75.72 64.56 80.11 64.56ZM80.11 75.15C81.57 75.15 82.75 73.96 82.75 72.5C82.75 71.04 81.57 69.85 80.11 69.85C78.64 69.85 77.46 71.04 77.46 72.5C77.46 73.96 78.64 75.15 80.11 75.15Z" id="jfoqEKLzw"></path><path d="M53.62 64.56C58.01 64.56 61.57 68.11 61.57 72.5C61.56 76.88 58.01 80.44 53.62 80.44C49.24 80.44 45.68 76.89 45.68 72.5C45.68 68.11 49.24 64.56 53.62 64.56ZM53.62 75.15C55.09 75.15 56.27 73.96 56.27 72.5C56.27 71.04 55.09 69.85 53.62 69.85C52.16 69.85 50.98 71.04 50.98 72.5C50.98 73.96 52.16 75.15 53.62 75.15Z" id="b8RB5F99W"></path><path d="M106.59 80.44C110.97 80.44 114.53 76.89 114.53 72.5C114.53 68.11 110.97 64.56 106.59 64.56C102.2 64.56 98.64 68.11 98.64 72.5C98.64 76.89 102.2 80.44 106.59 80.44ZM106.59 69.85C108.05 69.85 109.24 71.04 109.24 72.5C109.23 73.96 108.05 75.15 106.59 75.15C105.12 75.15 103.94 73.96 103.94 72.5C103.94 71.04 105.12 69.85 106.59 69.85Z" id="a3zodx3Zq6"></path><path d="M106.59 80.44C110.97 80.44 114.53 76.89 114.53 72.5C114.53 68.11 110.97 64.56 106.59 64.56C102.2 64.56 98.64 68.11 98.64 72.5C98.64 76.89 102.2 80.44 106.59 80.44ZM106.59 69.85C108.05 69.85 109.24 71.04 109.24 72.5C109.23 73.96 108.05 75.15 106.59 75.15C105.12 75.15 103.94 73.96 103.94 72.5C103.94 71.04 105.12 69.85 106.59 69.85Z" id="bIEdw8EWt"></path><path d="M69.92 139.26C43.43 139.26 21.92 135.96 21.92 131.89C21.92 127.82 43.43 124.51 69.92 124.51C96.41 124.51 117.92 127.82 117.92 131.89C117.92 135.96 96.41 139.26 69.92 139.26Z" id="aCwKGclqt"></path><path d="M25.92 141.51C19.71 141.51 14.67 134.96 14.67 126.89C14.67 118.81 19.71 112.26 25.92 112.26C32.13 112.26 37.17 118.81 37.17 126.89C37.17 134.96 32.13 141.51 25.92 141.51Z" id="aMQkZVZso"></path><path d="M35.42 146.82C26.18 146.82 18.67 143.26 18.67 138.88C18.67 134.49 26.18 130.93 35.42 130.93C44.67 130.93 52.17 134.49 52.17 138.88C52.17 143.26 44.67 146.82 35.42 146.82Z" id="c1qWJ1KI3x"></path><path d="M20.3 152.22C17.19 152.22 14.67 147.42 14.67 141.51C14.67 135.6 17.19 130.8 20.3 130.8C23.4 130.8 25.92 135.6 25.92 141.51C25.92 147.42 23.4 152.22 20.3 152.22Z" id="b18cVR5ziE"></path><path d="M14.05 161.67C10.94 161.67 8.42 157.44 8.42 152.22C8.42 147.01 10.94 142.78 14.05 142.78C17.15 142.78 19.67 147.01 19.67 152.22C19.67 157.44 17.15 161.67 14.05 161.67Z" id="a1x0Snp9VN"></path><path d="M21.92 155.01C14.88 155.01 9.17 151.99 9.17 148.26C9.17 144.54 14.88 141.51 21.92 141.51C28.96 141.51 34.67 144.54 34.67 148.26C34.67 151.99 28.96 155.01 21.92 155.01Z" id="gFqX1wTOA"></path></defs><g><g><g><use xlink:href="#b5mQYXG8G4" opacity="1" fill="#cfcfcf" fill-opacity="1"></use><g><use xlink:href="#b5mQYXG8G4" opacity="1" fill-opacity="0" stroke="#000000" stroke-width="1" stroke-opacity="0"></use></g></g><g><use xlink:href="#c1iqXUaj6r" opacity="1" fill="#cfcfcf" fill-opacity="1"></use><g><use xlink:href="#c1iqXUaj6r" opacity="1" fill-opacity="0" stroke="#000000" stroke-width="1" stroke-opacity="0"></use></g></g><g><use xlink:href="#eUKRGgTiQ" opacity="1" fill="#cfcfcf" fill-opacity="1"></use><g><use xlink:href="#eUKRGgTiQ" opacity="1" fill-opacity="0" stroke="#000000" stroke-width="1" stroke-opacity="0"></use></g></g><g><use xlink:href="#b2fPyIrjY9" opacity="1" fill="#cfcfcf" fill-opacity="1"></use><g><use xlink:href="#b2fPyIrjY9" opacity="1" fill-opacity="0" stroke="#000000" stroke-width="1" stroke-opacity="0"></use></g></g><g><use xlink:href="#c4coIP2SNE" opacity="1" fill="#cfcfcf" fill-opacity="1"></use><g><use xlink:href="#c4coIP2SNE" opacity="1" fill-opacity="0" stroke="#000000" stroke-width="1" stroke-opacity="0"></use></g></g><g><use xlink:href="#a3ZZTEBzsj" opacity="1" fill="#cfcfcf" fill-opacity="1"></use><g><use xlink:href="#a3ZZTEBzsj" opacity="1" fill-opacity="0" stroke="#000000" stroke-width="1" stroke-opacity="0"></use></g></g><g><use xlink:href="#jfoqEKLzw" opacity="1" fill="#37474f" fill-opacity="1"></use><g><use xlink:href="#jfoqEKLzw" opacity="1" fill-opacity="0" stroke="#000000" stroke-width="1" stroke-opacity="0"></use></g></g><g><use xlink:href="#b8RB5F99W" opacity="1" fill="#37474f" fill-opacity="1"></use><g><use xlink:href="#b8RB5F99W" opacity="1" fill-opacity="0" stroke="#000000" stroke-width="1" stroke-opacity="0"></use></g></g><g><use xlink:href="#a3zodx3Zq6" opacity="1" fill="#37474f" fill-opacity="1"></use><g><use xlink:href="#a3zodx3Zq6" opacity="1" fill-opacity="0" stroke="#000000" stroke-width="1" stroke-opacity="0"></use></g></g><g><use xlink:href="#bIEdw8EWt" opacity="1" fill="#37474f" fill-opacity="1"></use><g><use xlink:href="#bIEdw8EWt" opacity="1" fill-opacity="0" stroke="#000000" stroke-width="1" stroke-opacity="0"></use></g></g><g><use xlink:href="#aCwKGclqt" opacity="1" fill="#cfcfcf" fill-opacity="1"></use><g><use xlink:href="#aCwKGclqt" opacity="1" fill-opacity="0" stroke="#000000" stroke-width="1" stroke-opacity="0"></use></g></g><g><use xlink:href="#aMQkZVZso" opacity="1" fill="#cfcfcf" fill-opacity="1"></use><g><use xlink:href="#aMQkZVZso" opacity="1" fill-opacity="0" stroke="#000000" stroke-width="1" stroke-opacity="0"></use></g></g><g><use xlink:href="#c1qWJ1KI3x" opacity="1" fill="#cfcfcf" fill-opacity="1"></use><g><use xlink:href="#c1qWJ1KI3x" opacity="1" fill-opacity="0" stroke="#000000" stroke-width="1" stroke-opacity="0"></use></g></g><g><use xlink:href="#b18cVR5ziE" opacity="1" fill="#cfcfcf" fill-opacity="1"></use><g><use xlink:href="#b18cVR5ziE" opacity="1" fill-opacity="0" stroke="#000000" stroke-width="1" stroke-opacity="0"></use></g></g><g><use xlink:href="#a1x0Snp9VN" opacity="1" fill="#cfcfcf" fill-opacity="1"></use><g><use xlink:href="#a1x0Snp9VN" opacity="1" fill-opacity="0" stroke="#000000" stroke-width="1" stroke-opacity="0"></use></g></g><g><use xlink:href="#gFqX1wTOA" opacity="1" fill="#cfcfcf" fill-opacity="1"></use><g><use xlink:href="#gFqX1wTOA" opacity="1" fill-opacity="0" stroke="#000000" stroke-width="1" stroke-opacity="0"></use></g></g></g></g></svg>