<?xml version="1.0" encoding="UTF-8" standalone="no"?>
<!DOCTYPE svg PUBLIC "-//W3C//DTD SVG 1.1//EN" "http://www.w3.org/Graphics/SVG/1.1/DTD/svg11.dtd">
<svg version="1.1" xmlns="http://www.w3.org/2000/svg" xmlns:xlink="http://www.w3.org/1999/xlink" preserveAspectRatio="xMidYMid meet" viewBox="0 0 163 167" width="163" height="167"><defs><path d="M65.26 89.14C78.43 89.14 89.14 78.43 89.14 65.26C89.14 52.1 78.43 41.39 65.26 41.39C52.1 41.39 41.39 52.1 41.39 65.26C41.39 78.43 52.1 89.14 65.26 89.14ZM65.26 55.71C70.54 55.71 74.81 59.99 74.81 65.26C74.81 70.54 70.54 74.81 65.26 74.81C59.99 74.81 55.71 70.54 55.71 65.26C55.71 59.99 59.99 55.71 65.26 55.71Z" id="anEUElLA1"></path><path d="M65.26 89.14C78.43 89.14 89.14 78.43 89.14 65.26C89.14 52.1 78.43 41.39 65.26 41.39C52.1 41.39 41.39 52.1 41.39 65.26C41.39 78.43 52.1 89.14 65.26 89.14ZM65.26 55.71C70.54 55.71 74.81 59.99 74.81 65.26C74.81 70.54 70.54 74.81 65.26 74.81C59.99 74.81 55.71 70.54 55.71 65.26C55.71 59.99 59.99 55.71 65.26 55.71Z" id="d1ciwiYOKU"></path><path d="M106.13 91.51C104 92.04 102.51 93.95 102.51 96.14C102.51 100.05 102.51 131.27 102.51 135.17C101.02 134.64 99.41 134.35 97.74 134.35C89.84 134.35 83.41 140.77 83.41 148.67C83.41 156.57 89.84 163 97.74 163C105.64 163 112.06 156.57 112.06 148.67C112.06 146.37 112.06 134.83 112.06 114.05C116.2 113.02 149.31 104.74 153.45 103.71C153.45 118.76 153.45 127.13 153.45 128.8C151.95 128.27 150.35 127.98 148.67 127.98C140.77 127.98 134.35 134.41 134.35 142.31C134.35 150.21 140.77 156.63 148.67 156.63C156.57 156.63 163 150.21 163 142.31C163 136.42 163 89.3 163 83.41C163 81.94 162.32 80.55 161.16 79.65C160 78.74 158.49 78.42 157.07 78.78C151.97 80.05 111.22 90.24 106.13 91.51Z" id="a4FmPZfvbD"></path><path d="M106.13 91.51C104 92.04 102.51 93.95 102.51 96.14C102.51 100.05 102.51 131.27 102.51 135.17C101.02 134.64 99.41 134.35 97.74 134.35C89.84 134.35 83.41 140.77 83.41 148.67C83.41 156.57 89.84 163 97.74 163C105.64 163 112.06 156.57 112.06 148.67C112.06 146.37 112.06 134.83 112.06 114.05C116.2 113.02 149.31 104.74 153.45 103.71C153.45 118.76 153.45 127.13 153.45 128.8C151.95 128.27 150.35 127.98 148.67 127.98C140.77 127.98 134.35 134.41 134.35 142.31C134.35 150.21 140.77 156.63 148.67 156.63C156.57 156.63 163 150.21 163 142.31C163 136.42 163 89.3 163 83.41C163 81.94 162.32 80.55 161.16 79.65C160 78.74 158.49 78.42 157.07 78.78C151.97 80.05 111.22 90.24 106.13 91.51Z" id="aAu07LzXT"></path><path d="M130.53 65.26C130.53 29.28 101.25 0 65.26 0C29.28 0 0 29.28 0 65.26C0 101.25 29.28 130.53 65.26 130.53C74.98 130.53 84.39 128.39 92.96 124.37C92.96 121.55 92.96 98.97 92.96 96.14C92.96 89.56 97.42 83.84 103.81 82.25C108.99 80.95 127.1 76.43 129.68 75.78C130.24 72.32 130.53 68.81 130.53 65.26ZM65.26 31.84C83.7 31.84 98.69 46.83 98.69 65.26C98.69 83.7 83.7 98.69 65.26 98.69C46.83 98.69 31.84 83.7 31.84 65.26C31.84 46.83 46.83 31.84 65.26 31.84Z" id="gpt3cR8y"></path><path d="M130.53 65.26C130.53 29.28 101.25 0 65.26 0C29.28 0 0 29.28 0 65.26C0 101.25 29.28 130.53 65.26 130.53C74.98 130.53 84.39 128.39 92.96 124.37C92.96 121.55 92.96 98.97 92.96 96.14C92.96 89.56 97.42 83.84 103.81 82.25C108.99 80.95 127.1 76.43 129.68 75.78C130.24 72.32 130.53 68.81 130.53 65.26ZM65.26 31.84C83.7 31.84 98.69 46.83 98.69 65.26C98.69 83.7 83.7 98.69 65.26 98.69C46.83 98.69 31.84 83.7 31.84 65.26C31.84 46.83 46.83 31.84 65.26 31.84Z" id="f2KFwbHedy"></path></defs><g><g><g><use xlink:href="#anEUElLA1" opacity="1" fill="#cfcfcf" fill-opacity="1"></use><g><use xlink:href="#anEUElLA1" opacity="1" fill-opacity="0" stroke="#000000" stroke-width="1" stroke-opacity="0"></use></g></g><g><use xlink:href="#d1ciwiYOKU" opacity="1" fill="#cfcfcf" fill-opacity="1"></use><g><use xlink:href="#d1ciwiYOKU" opacity="1" fill-opacity="0" stroke="#000000" stroke-width="1" stroke-opacity="0"></use></g></g><g><use xlink:href="#a4FmPZfvbD" opacity="1" fill="#cfcfcf" fill-opacity="1"></use><g><use xlink:href="#a4FmPZfvbD" opacity="1" fill-opacity="0" stroke="#000000" stroke-width="1" stroke-opacity="0"></use></g></g><g><use xlink:href="#aAu07LzXT" opacity="1" fill="#cfcfcf" fill-opacity="1"></use><g><use xlink:href="#aAu07LzXT" opacity="1" fill-opacity="0" stroke="#000000" stroke-width="1" stroke-opacity="0"></use></g></g><g><use xlink:href="#gpt3cR8y" opacity="1" fill="#cfcfcf" fill-opacity="1"></use><g><use xlink:href="#gpt3cR8y" opacity="1" fill-opacity="0" stroke="#000000" stroke-width="1" stroke-opacity="0"></use></g></g><g><use xlink:href="#f2KFwbHedy" opacity="1" fill="#cfcfcf" fill-opacity="1"></use><g><use xlink:href="#f2KFwbHedy" opacity="1" fill-opacity="0" stroke="#000000" stroke-width="1" stroke-opacity="0"></use></g></g></g></g></svg>