<?xml version="1.0" encoding="UTF-8" standalone="no"?>
<!DOCTYPE svg PUBLIC "-//W3C//DTD SVG 1.1//EN" "http://www.w3.org/Graphics/SVG/1.1/DTD/svg11.dtd">
<svg version="1.1" xmlns="http://www.w3.org/2000/svg" xmlns:xlink="http://www.w3.org/1999/xlink" preserveAspectRatio="xMidYMid meet" viewBox="0 0 163 167" width="163" height="167"><defs><path d="M68.36 10.26C66.51 16.4 66.17 22.91 67.37 29.21C67.53 30.02 67.7 30.76 67.89 31.45C69.11 26.46 71.24 21.74 74.16 17.52C73.58 16.79 68.94 10.99 68.36 10.26Z" id="b1V1Td9GhP"></path><path d="M68.36 10.26C66.51 16.4 66.17 22.91 67.37 29.21C67.53 30.02 67.7 30.76 67.89 31.45C69.11 26.46 71.24 21.74 74.16 17.52C73.58 16.79 68.94 10.99 68.36 10.26Z" id="c33FOEvrxJ"></path><path d="M98.13 56.15C91.43 50.2 85.47 39.68 87.02 31.98C88.8 25.12 93.4 19.34 99.67 16.06C103.71 14.05 103.71 12.68 103.71 10.19C104.14 7.54 102.34 5.04 99.69 4.61C99.17 4.53 98.65 4.53 98.13 4.61C95.02 4.61 89.51 8.46 83.41 14.91C77.1 21.57 67.77 35.21 75.04 52.56C78.12 53.48 85.82 55.79 98.13 59.49C98.13 57.49 98.13 56.38 98.13 56.15Z" id="bDDtUqAJ7"></path><path d="M98.13 56.15C91.43 50.2 85.47 39.68 87.02 31.98C88.8 25.12 93.4 19.34 99.67 16.06C103.71 14.05 103.71 12.68 103.71 10.19C104.14 7.54 102.34 5.04 99.69 4.61C99.17 4.53 98.65 4.53 98.13 4.61C95.02 4.61 89.51 8.46 83.41 14.91C77.1 21.57 67.77 35.21 75.04 52.56C78.12 53.48 85.82 55.79 98.13 59.49C98.13 57.49 98.13 56.38 98.13 56.15Z" id="c7GfOtAWL"></path><path d="M114.93 36.22C119.18 33.78 123.59 31.62 128.12 29.76C108.6 25.17 96.91 34.68 93.06 38.62C94.45 42.7 96.66 46.45 99.56 49.64C102.02 44.78 105.97 40.84 110.84 38.4C112.07 37.79 113.43 37.04 114.93 36.22Z" id="e2rWFDXjef"></path><path d="M114.93 36.22C119.18 33.78 123.59 31.62 128.12 29.76C108.6 25.17 96.91 34.68 93.06 38.62C94.45 42.7 96.66 46.45 99.56 49.64C102.02 44.78 105.97 40.84 110.84 38.4C112.07 37.79 113.43 37.04 114.93 36.22Z" id="adZiEnoIH"></path><path d="M62.61 38.89C57.03 36.3 50.09 33.06 45.5 25.63C43.66 22.43 42.26 19 41.34 15.42C38.86 22.6 39.87 30.52 44.06 36.86C49.58 45.52 58.76 51.19 68.98 52.25C67.71 48.58 67 44.73 66.9 40.85C66.62 40.79 63.87 39.45 62.61 38.89Z" id="bfa1fEfO3"></path><path d="M62.61 38.89C57.03 36.3 50.09 33.06 45.5 25.63C43.66 22.43 42.26 19 41.34 15.42C38.86 22.6 39.87 30.52 44.06 36.86C49.58 45.52 58.76 51.19 68.98 52.25C67.71 48.58 67 44.73 66.9 40.85C66.62 40.79 63.87 39.45 62.61 38.89Z" id="b4Nmhpc17"></path><path d="M114.36 49.33C119.9 48.35 125.6 49.49 130.34 52.52C130.04 52.99 127.64 56.75 127.34 57.22C123.8 54.95 119.54 54.09 115.4 54.82C110.26 55.97 105.92 59.39 103.6 64.12C111.09 68.65 117.65 74.56 122.94 81.52C122.45 81.8 118.56 83.99 118.08 84.26C117.93 84.03 100.73 61.65 75.67 60.45C61.31 59.77 51.52 65.86 41.89 81.49C35.76 91.76 33.88 104.01 36.64 115.65C36.1 115.77 31.75 116.8 31.21 116.93C28.11 103.85 30.24 90.09 37.13 78.56C42.72 69.5 49.93 60.38 61.65 56.62C52.46 53.85 44.55 47.9 39.34 39.83C39.22 39.63 39.12 39.44 39 39.24C18.79 44.24 3.21 66.56 3.21 91.15C3.21 91.43 3.21 93.67 3.21 93.95C3.26 130.93 33.23 160.9 70.21 160.95C72.45 160.95 90.31 160.95 92.55 160.95C138.84 158.51 159.55 136.98 159.55 91.15C159.55 90.88 159.55 88.64 159.55 88.36C159.03 75.37 153.42 63.11 143.94 54.22C135.55 46.47 124.26 42.64 112.89 43.66C106.8 46.91 103.71 52.53 103.71 54.86C106.66 52.03 110.35 50.11 114.36 49.33ZM45.09 110.7L45.09 105.11L50.67 105.11L50.67 110.7L45.09 110.7ZM53.46 96.74L53.46 91.15L59.05 91.15L59.05 96.74L53.46 96.74ZM98.13 149.78L98.13 144.2L103.71 144.2L103.71 149.78L98.13 149.78ZM108.73 144.26C116.56 142.78 123.83 139.15 129.72 133.79C144.9 119.55 148 92.75 137.42 67.09C137.94 66.88 142.07 65.18 142.59 64.97C154.22 93.2 150.67 121.81 133.54 137.86C126.9 143.93 118.71 148.04 109.87 149.72C109.76 149.18 108.84 144.8 108.73 144.26Z" id="d2AyWN0Rql"></path><path d="M114.36 49.33C119.9 48.35 125.6 49.49 130.34 52.52C130.04 52.99 127.64 56.75 127.34 57.22C123.8 54.95 119.54 54.09 115.4 54.82C110.26 55.97 105.92 59.39 103.6 64.12C111.09 68.65 117.65 74.56 122.94 81.52C122.45 81.8 118.56 83.99 118.08 84.26C117.93 84.03 100.73 61.65 75.67 60.45C61.31 59.77 51.52 65.86 41.89 81.49C35.76 91.76 33.88 104.01 36.64 115.65C36.1 115.77 31.75 116.8 31.21 116.93C28.11 103.85 30.24 90.09 37.13 78.56C42.72 69.5 49.93 60.38 61.65 56.62C52.46 53.85 44.55 47.9 39.34 39.83C39.22 39.63 39.12 39.44 39 39.24C18.79 44.24 3.21 66.56 3.21 91.15C3.21 91.43 3.21 93.67 3.21 93.95C3.26 130.93 33.23 160.9 70.21 160.95C72.45 160.95 90.31 160.95 92.55 160.95C138.84 158.51 159.55 136.98 159.55 91.15C159.55 90.88 159.55 88.64 159.55 88.36C159.03 75.37 153.42 63.11 143.94 54.22C135.55 46.47 124.26 42.64 112.89 43.66C106.8 46.91 103.71 52.53 103.71 54.86C106.66 52.03 110.35 50.11 114.36 49.33ZM45.09 110.7L45.09 105.11L50.67 105.11L50.67 110.7L45.09 110.7ZM53.46 96.74L53.46 91.15L59.05 91.15L59.05 96.74L53.46 96.74ZM98.13 149.78L98.13 144.2L103.71 144.2L103.71 149.78L98.13 149.78ZM108.73 144.26C116.56 142.78 123.83 139.15 129.72 133.79C144.9 119.55 148 92.75 137.42 67.09C137.94 66.88 142.07 65.18 142.59 64.97C154.22 93.2 150.67 121.81 133.54 137.86C126.9 143.93 118.71 148.04 109.87 149.72C109.76 149.18 108.84 144.8 108.73 144.26Z" id="fuPAjBGzl"></path></defs><g><g><g><use xlink:href="#b1V1Td9GhP" opacity="1" fill="#cfcfcf" fill-opacity="1"></use><g><use xlink:href="#b1V1Td9GhP" opacity="1" fill-opacity="0" stroke="#000000" stroke-width="1" stroke-opacity="0"></use></g></g><g><use xlink:href="#c33FOEvrxJ" opacity="1" fill="#cfcfcf" fill-opacity="1"></use><g><use xlink:href="#c33FOEvrxJ" opacity="1" fill-opacity="0" stroke="#000000" stroke-width="1" stroke-opacity="0"></use></g></g><g><use xlink:href="#bDDtUqAJ7" opacity="1" fill="#cfcfcf" fill-opacity="1"></use><g><use xlink:href="#bDDtUqAJ7" opacity="1" fill-opacity="0" stroke="#000000" stroke-width="1" stroke-opacity="0"></use></g></g><g><use xlink:href="#c7GfOtAWL" opacity="1" fill="#cfcfcf" fill-opacity="1"></use><g><use xlink:href="#c7GfOtAWL" opacity="1" fill-opacity="0" stroke="#000000" stroke-width="1" stroke-opacity="0"></use></g></g><g><use xlink:href="#e2rWFDXjef" opacity="1" fill="#cfcfcf" fill-opacity="1"></use><g><use xlink:href="#e2rWFDXjef" opacity="1" fill-opacity="0" stroke="#000000" stroke-width="1" stroke-opacity="0"></use></g></g><g><use xlink:href="#adZiEnoIH" opacity="1" fill="#cfcfcf" fill-opacity="1"></use><g><use xlink:href="#adZiEnoIH" opacity="1" fill-opacity="0" stroke="#000000" stroke-width="1" stroke-opacity="0"></use></g></g><g><use xlink:href="#bfa1fEfO3" opacity="1" fill="#cfcfcf" fill-opacity="1"></use><g><use xlink:href="#bfa1fEfO3" opacity="1" fill-opacity="0" stroke="#000000" stroke-width="1" stroke-opacity="0"></use></g></g><g><use xlink:href="#b4Nmhpc17" opacity="1" fill="#cfcfcf" fill-opacity="1"></use><g><use xlink:href="#b4Nmhpc17" opacity="1" fill-opacity="0" stroke="#000000" stroke-width="1" stroke-opacity="0"></use></g></g><g><use xlink:href="#d2AyWN0Rql" opacity="1" fill="#cfcfcf" fill-opacity="1"></use><g><use xlink:href="#d2AyWN0Rql" opacity="1" fill-opacity="0" stroke="#000000" stroke-width="1" stroke-opacity="0"></use></g></g><g><use xlink:href="#fuPAjBGzl" opacity="1" fill="#cfcfcf" fill-opacity="1"></use><g><use xlink:href="#fuPAjBGzl" opacity="1" fill-opacity="0" stroke="#000000" stroke-width="1" stroke-opacity="0"></use></g></g></g></g></svg>