<?xml version="1.0" encoding="UTF-8" standalone="no"?>
<!DOCTYPE svg PUBLIC "-//W3C//DTD SVG 1.1//EN" "http://www.w3.org/Graphics/SVG/1.1/DTD/svg11.dtd">
<svg version="1.1" xmlns="http://www.w3.org/2000/svg" xmlns:xlink="http://www.w3.org/1999/xlink" preserveAspectRatio="xMidYMid meet" viewBox="0 0 131 167" width="131" height="167"><defs><path d="M66.5 2C38.51 2 33.68 19.85 33.68 41.86C33.68 63.87 48.38 81.72 66.5 81.72C84.62 81.72 99.32 63.87 99.32 41.86C99.32 19.85 94.49 2 66.5 2Z" id="d33SgBbj4O"></path><path d="M66.5 2C38.51 2 33.68 19.85 33.68 41.86C33.68 63.87 48.38 81.72 66.5 81.72C84.62 81.72 99.32 63.87 99.32 41.86C99.32 19.85 94.49 2 66.5 2Z" id="dPDKyJDgJ"></path><path d="M4.52 142.58C4.51 142.33 4.51 142.33 4.52 142.58C4.52 142.58 4.52 142.58 4.52 142.58Z" id="a1g8W8ZSDz"></path><path d="M4.52 142.58C4.51 142.33 4.51 142.33 4.52 142.58C4.52 142.58 4.52 142.58 4.52 142.58Z" id="e18VgE1UME"></path><path d="M128.48 143.63C128.48 141.93 128.48 141.93 128.48 143.63C128.48 143.63 128.48 143.63 128.48 143.63Z" id="a2ghKccdQn"></path><path d="M128.48 143.63C128.48 141.93 128.48 141.93 128.48 143.63C128.48 143.63 128.48 143.63 128.48 143.63Z" id="b5oK5MyF6r"></path><path d="M66.5 91.65C53.93 91.65 48.53 84.78 48.53 84.78C10.62 91.62 5.31 102.38 4.61 139.72C4.55 142.77 4.53 142.93 4.52 142.58C4.52 143.24 4.52 144.47 4.52 146.61C4.52 146.61 13.65 165 66.5 165C119.35 165 128.48 146.61 128.48 146.61C128.48 145.23 128.48 144.28 128.48 143.63C128.47 143.84 128.45 143.42 128.41 140.97C127.8 102.62 122.79 91.69 84.47 84.78C80.88 86.15 79.07 91.65 66.5 91.65Z" id="cdouTJgs1"></path><path d="M66.5 91.65C53.93 91.65 48.53 84.78 48.53 84.78C10.62 91.62 5.31 102.38 4.61 139.72C4.55 142.77 4.53 142.93 4.52 142.58C4.52 143.24 4.52 144.47 4.52 146.61C4.52 146.61 13.65 165 66.5 165C119.35 165 128.48 146.61 128.48 146.61C128.48 145.23 128.48 144.28 128.48 143.63C128.47 143.84 128.45 143.42 128.41 140.97C127.8 102.62 122.79 91.69 84.47 84.78C80.88 86.15 79.07 91.65 66.5 91.65Z" id="a1m12mpNq3"></path></defs><g><g><g><use xlink:href="#d33SgBbj4O" opacity="1" fill="#cfcfcf" fill-opacity="1"></use><g><use xlink:href="#d33SgBbj4O" opacity="1" fill-opacity="0" stroke="#000000" stroke-width="1" stroke-opacity="0"></use></g></g><g><use xlink:href="#dPDKyJDgJ" opacity="1" fill="#cfcfcf" fill-opacity="1"></use><g><use xlink:href="#dPDKyJDgJ" opacity="1" fill-opacity="0" stroke="#000000" stroke-width="1" stroke-opacity="0"></use></g></g><g><use xlink:href="#a1g8W8ZSDz" opacity="1" fill="#cfcfcf" fill-opacity="1"></use><g><use xlink:href="#a1g8W8ZSDz" opacity="1" fill-opacity="0" stroke="#000000" stroke-width="1" stroke-opacity="0"></use></g></g><g><use xlink:href="#e18VgE1UME" opacity="1" fill="#cfcfcf" fill-opacity="1"></use><g><use xlink:href="#e18VgE1UME" opacity="1" fill-opacity="0" stroke="#000000" stroke-width="1" stroke-opacity="0"></use></g></g><g><use xlink:href="#a2ghKccdQn" opacity="1" fill="#cfcfcf" fill-opacity="1"></use><g><use xlink:href="#a2ghKccdQn" opacity="1" fill-opacity="0" stroke="#000000" stroke-width="1" stroke-opacity="0"></use></g></g><g><use xlink:href="#b5oK5MyF6r" opacity="1" fill="#cfcfcf" fill-opacity="1"></use><g><use xlink:href="#b5oK5MyF6r" opacity="1" fill-opacity="0" stroke="#000000" stroke-width="1" stroke-opacity="0"></use></g></g><g><use xlink:href="#cdouTJgs1" opacity="1" fill="#cfcfcf" fill-opacity="1"></use><g><use xlink:href="#cdouTJgs1" opacity="1" fill-opacity="0" stroke="#000000" stroke-width="1" stroke-opacity="0"></use></g></g><g><use xlink:href="#a1m12mpNq3" opacity="1" fill="#cfcfcf" fill-opacity="1"></use><g><use xlink:href="#a1m12mpNq3" opacity="1" fill-opacity="0" stroke="#000000" stroke-width="1" stroke-opacity="0"></use></g></g></g></g></svg>