<?xml version="1.0" encoding="UTF-8" standalone="no"?>
<!DOCTYPE svg PUBLIC "-//W3C//DTD SVG 1.1//EN" "http://www.w3.org/Graphics/SVG/1.1/DTD/svg11.dtd">
<svg version="1.1" xmlns="http://www.w3.org/2000/svg" xmlns:xlink="http://www.w3.org/1999/xlink" preserveAspectRatio="xMidYMid meet" viewBox="0 0 163 156" width="163" height="156"><defs><path d="M91.92 86.56C92.77 85.09 99.58 73.29 100.43 71.82C94.83 68.58 91.72 66.78 91.1 66.42C92.29 62.8 92.98 58.96 93.11 54.98C93.82 54.86 97.36 54.23 103.73 53.1C103.44 51.43 101.07 38.02 100.77 36.34C94.4 37.46 90.86 38.08 90.16 38.21C88.69 34.57 86.72 31.19 84.34 28.15C84.8 27.6 87.11 24.84 91.27 19.88C89.97 18.79 79.53 10.03 78.23 8.94C74.07 13.89 71.76 16.65 71.3 17.2C67.91 15.39 64.25 14.03 60.38 13.22C60.38 12.5 60.38 8.9 60.38 2.44C58.68 2.44 45.06 2.44 43.35 2.44C43.35 8.9 43.35 12.5 43.35 13.22C39.48 14.03 35.82 15.39 32.43 17.2C31.97 16.65 29.66 13.89 25.5 8.94C24.2 10.03 13.76 18.79 12.46 19.88C16.62 24.84 18.93 27.6 19.39 28.15C17.01 31.19 15.04 34.57 13.57 38.21C12.87 38.08 9.33 37.46 2.96 36.34C2.66 38.02 0.3 51.43 0 53.1C6.37 54.23 9.91 54.86 10.62 54.98C10.75 58.96 11.45 62.8 12.63 66.42C12.01 66.78 8.9 68.58 3.3 71.82C4.15 73.29 10.96 85.09 11.81 86.56C17.43 83.33 20.54 81.52 21.17 81.16C23.76 84.05 26.75 86.57 30.06 88.63C29.81 89.31 28.58 92.69 26.37 98.77C27.97 99.35 40.77 104.01 42.37 104.59C44.58 98.52 45.81 95.14 46.05 94.47C47.96 94.74 49.89 94.88 51.87 94.88C53.84 94.88 55.78 94.74 57.68 94.47C57.92 95.14 59.15 98.52 61.36 104.6C62.43 104.21 67.76 102.27 77.37 98.77C75.15 92.69 73.92 89.31 73.67 88.63C77.88 85.57 80.83 83.09 82.56 81.16C83.19 81.52 86.3 83.32 91.92 86.56ZM51.86 31.86C63.85 31.86 73.61 41.62 73.61 53.61C73.61 65.6 63.86 75.36 51.86 75.36C39.87 75.36 30.12 65.6 30.12 53.61C30.12 41.62 39.87 31.86 51.86 31.86Z" id="b1Riz2BPxr"></path><path d="M91.92 86.56C92.77 85.09 99.58 73.29 100.43 71.82C94.83 68.58 91.72 66.78 91.1 66.42C92.29 62.8 92.98 58.96 93.11 54.98C93.82 54.86 97.36 54.23 103.73 53.1C103.44 51.43 101.07 38.02 100.77 36.34C94.4 37.46 90.86 38.08 90.16 38.21C88.69 34.57 86.72 31.19 84.34 28.15C84.8 27.6 87.11 24.84 91.27 19.88C89.97 18.79 79.53 10.03 78.23 8.94C74.07 13.89 71.76 16.65 71.3 17.2C67.91 15.39 64.25 14.03 60.38 13.22C60.38 12.5 60.38 8.9 60.38 2.44C58.68 2.44 45.06 2.44 43.35 2.44C43.35 8.9 43.35 12.5 43.35 13.22C39.48 14.03 35.82 15.39 32.43 17.2C31.97 16.65 29.66 13.89 25.5 8.94C24.2 10.03 13.76 18.79 12.46 19.88C16.62 24.84 18.93 27.6 19.39 28.15C17.01 31.19 15.04 34.57 13.57 38.21C12.87 38.08 9.33 37.46 2.96 36.34C2.66 38.02 0.3 51.43 0 53.1C6.37 54.23 9.91 54.86 10.62 54.98C10.75 58.96 11.45 62.8 12.63 66.42C12.01 66.78 8.9 68.58 3.3 71.82C4.15 73.29 10.96 85.09 11.81 86.56C17.43 83.33 20.54 81.52 21.17 81.16C23.76 84.05 26.75 86.57 30.06 88.63C29.81 89.31 28.58 92.69 26.37 98.77C27.97 99.35 40.77 104.01 42.37 104.59C44.58 98.52 45.81 95.14 46.05 94.47C47.96 94.74 49.89 94.88 51.87 94.88C53.84 94.88 55.78 94.74 57.68 94.47C57.92 95.14 59.15 98.52 61.36 104.6C62.43 104.21 67.76 102.27 77.37 98.77C75.15 92.69 73.92 89.31 73.67 88.63C77.88 85.57 80.83 83.09 82.56 81.16C83.19 81.52 86.3 83.32 91.92 86.56ZM51.86 31.86C63.85 31.86 73.61 41.62 73.61 53.61C73.61 65.6 63.86 75.36 51.86 75.36C39.87 75.36 30.12 65.6 30.12 53.61C30.12 41.62 39.87 31.86 51.86 31.86Z" id="a2xVsO8sJ"></path><path d="M134.4 97.24C134.68 96.8 136.05 94.62 138.51 90.69C137.48 90.05 129.21 84.87 128.18 84.22C125.72 88.14 124.35 90.33 124.08 90.76C121.5 89.81 118.77 89.21 115.94 89.02C115.87 88.51 115.52 85.96 114.88 81.38C113.67 81.55 104.01 82.89 102.8 83.06C103.44 87.65 103.8 90.19 103.87 90.7C101.21 91.66 98.75 92.98 96.52 94.61C96.14 94.26 94.23 92.54 90.79 89.43C89.98 90.33 83.44 97.58 82.63 98.48C86.07 101.58 87.98 103.32 88.36 103.66C86.97 106.05 85.91 108.64 85.23 111.36C84.72 111.34 82.15 111.25 77.52 111.08C77.47 112.3 77.12 122.04 77.08 123.26C81.7 123.43 84.27 123.53 84.79 123.54C85.28 126.36 86.15 129.01 87.35 131.46C86.94 131.78 84.92 133.36 81.26 136.21C82.01 137.17 88.01 144.86 88.76 145.82C92.41 142.97 94.45 141.38 94.86 141.07C96.98 142.86 99.35 144.35 101.9 145.48C101.79 145.99 101.25 148.51 100.28 153.04C101.47 153.29 111.01 155.33 112.2 155.59C113.17 151.06 113.71 148.54 113.81 148.04C115.19 148.05 116.58 147.95 117.98 147.76C119.38 147.57 120.73 147.27 122.05 146.89C122.3 147.35 123.5 149.62 125.67 153.71C126.75 153.14 135.37 148.57 136.44 148C134.27 143.9 133.06 141.63 132.82 141.18C134.96 139.38 136.83 137.3 138.39 135C138.86 135.19 141.25 136.16 145.55 137.9C146.01 136.77 149.67 127.74 150.13 126.61C145.84 124.87 143.46 123.9 142.98 123.71C143.47 121.02 143.58 118.23 143.28 115.39C143.77 115.23 146.22 114.44 150.62 113.02C150.25 111.86 147.24 102.58 146.87 101.42C142.46 102.84 140.02 103.64 139.53 103.8C138.13 101.36 136.4 99.16 134.4 97.24ZM111.75 103.08C120.25 101.89 128.13 107.85 129.32 116.35C130.5 124.85 124.55 132.72 116.04 133.92C107.54 135.09 99.67 129.14 98.48 120.64C97.3 112.14 103.25 104.26 111.75 103.08Z" id="bHgp1A6"></path><path d="M134.4 97.24C134.68 96.8 136.05 94.62 138.51 90.69C137.48 90.05 129.21 84.87 128.18 84.22C125.72 88.14 124.35 90.33 124.08 90.76C121.5 89.81 118.77 89.21 115.94 89.02C115.87 88.51 115.52 85.96 114.88 81.38C113.67 81.55 104.01 82.89 102.8 83.06C103.44 87.65 103.8 90.19 103.87 90.7C101.21 91.66 98.75 92.98 96.52 94.61C96.14 94.26 94.23 92.54 90.79 89.43C89.98 90.33 83.44 97.58 82.63 98.48C86.07 101.58 87.98 103.32 88.36 103.66C86.97 106.05 85.91 108.64 85.23 111.36C84.72 111.34 82.15 111.25 77.52 111.08C77.47 112.3 77.12 122.04 77.08 123.26C81.7 123.43 84.27 123.53 84.79 123.54C85.28 126.36 86.15 129.01 87.35 131.46C86.94 131.78 84.92 133.36 81.26 136.21C82.01 137.17 88.01 144.86 88.76 145.82C92.41 142.97 94.45 141.38 94.86 141.07C96.98 142.86 99.35 144.35 101.9 145.48C101.79 145.99 101.25 148.51 100.28 153.04C101.47 153.29 111.01 155.33 112.2 155.59C113.17 151.06 113.71 148.54 113.81 148.04C115.19 148.05 116.58 147.95 117.98 147.76C119.38 147.57 120.73 147.27 122.05 146.89C122.3 147.35 123.5 149.62 125.67 153.71C126.75 153.14 135.37 148.57 136.44 148C134.27 143.9 133.06 141.63 132.82 141.18C134.96 139.38 136.83 137.3 138.39 135C138.86 135.19 141.25 136.16 145.55 137.9C146.01 136.77 149.67 127.74 150.13 126.61C145.84 124.87 143.46 123.9 142.98 123.71C143.47 121.02 143.58 118.23 143.28 115.39C143.77 115.23 146.22 114.44 150.62 113.02C150.25 111.86 147.24 102.58 146.87 101.42C142.46 102.84 140.02 103.64 139.53 103.8C138.13 101.36 136.4 99.16 134.4 97.24ZM111.75 103.08C120.25 101.89 128.13 107.85 129.32 116.35C130.5 124.85 124.55 132.72 116.04 133.92C107.54 135.09 99.67 129.14 98.48 120.64C97.3 112.14 103.25 104.26 111.75 103.08Z" id="c4c7IIchwn"></path><path d="M157.51 49.38C157.13 47.25 156.45 45.16 155.45 43.14C155.76 42.89 157.36 41.63 160.23 39.36C159.63 38.61 154.86 32.57 154.26 31.82C151.39 34.08 149.81 35.33 149.48 35.59C147.78 34.17 145.89 33.01 143.89 32.15C143.98 31.74 144.38 29.76 145.12 26.17C144.18 25.98 136.65 24.41 135.7 24.22C134.96 27.8 134.55 29.79 134.47 30.19C132.29 30.19 130.11 30.5 127.97 31.13C127.78 30.77 126.81 28.99 125.08 25.77C124.24 26.23 117.46 29.88 116.61 30.34C118.34 33.55 119.3 35.34 119.5 35.69C117.79 37.14 116.33 38.79 115.13 40.6C114.75 40.45 112.86 39.7 109.47 38.35C109.11 39.24 106.27 46.39 105.91 47.29C109.31 48.65 111.2 49.4 111.58 49.55C111.21 51.7 111.13 53.91 111.38 56.11C110.99 56.24 109.07 56.87 105.59 58.02C105.89 58.94 108.31 66.24 108.61 67.16C112.08 66.01 114.01 65.38 114.39 65.25C115.53 67.19 116.91 68.92 118.46 70.4C118.26 70.75 117.19 72.48 115.27 75.59C116.09 76.09 122.64 80.13 123.45 80.64C125.38 77.52 126.45 75.79 126.66 75.45C128.72 76.19 130.89 76.64 133.09 76.78C133.15 77.19 133.44 79.2 133.97 82.82C134.92 82.68 142.53 81.57 143.49 81.43C142.96 77.81 142.67 75.8 142.61 75.4C143.63 75.03 144.64 74.57 145.61 74.05C146.6 73.52 147.52 72.93 148.4 72.28C148.7 72.56 150.21 73.91 152.94 76.34C153.58 75.62 158.71 69.87 159.35 69.15C156.61 66.72 155.1 65.37 154.8 65.1C155.89 63.18 156.7 61.12 157.22 58.99C157.62 59.01 159.66 59.06 163.31 59.18C163.33 58.54 163.43 55.33 163.6 49.56C159.81 49.44 157.78 49.38 157.51 49.38ZM128.73 42.69C134.69 39.48 142.16 41.72 145.38 47.68C148.58 53.65 146.35 61.12 140.39 64.33C134.41 67.54 126.94 65.3 123.73 59.34C120.52 53.37 122.76 45.9 128.73 42.69Z" id="a8eoiEaKx"></path><path d="M157.51 49.38C157.13 47.25 156.45 45.16 155.45 43.14C155.76 42.89 157.36 41.63 160.23 39.36C159.63 38.61 154.86 32.57 154.26 31.82C151.39 34.08 149.81 35.33 149.48 35.59C147.78 34.17 145.89 33.01 143.89 32.15C143.98 31.74 144.38 29.76 145.12 26.17C144.18 25.98 136.65 24.41 135.7 24.22C134.96 27.8 134.55 29.79 134.47 30.19C132.29 30.19 130.11 30.5 127.97 31.13C127.78 30.77 126.81 28.99 125.08 25.77C124.24 26.23 117.46 29.88 116.61 30.34C118.34 33.55 119.3 35.34 119.5 35.69C117.79 37.14 116.33 38.79 115.13 40.6C114.75 40.45 112.86 39.7 109.47 38.35C109.11 39.24 106.27 46.39 105.91 47.29C109.31 48.65 111.2 49.4 111.58 49.55C111.21 51.7 111.13 53.91 111.38 56.11C110.99 56.24 109.07 56.87 105.59 58.02C105.89 58.94 108.31 66.24 108.61 67.16C112.08 66.01 114.01 65.38 114.39 65.25C115.53 67.19 116.91 68.92 118.46 70.4C118.26 70.75 117.19 72.48 115.27 75.59C116.09 76.09 122.64 80.13 123.45 80.64C125.38 77.52 126.45 75.79 126.66 75.45C128.72 76.19 130.89 76.64 133.09 76.78C133.15 77.19 133.44 79.2 133.97 82.82C134.92 82.68 142.53 81.57 143.49 81.43C142.96 77.81 142.67 75.8 142.61 75.4C143.63 75.03 144.64 74.57 145.61 74.05C146.6 73.52 147.52 72.93 148.4 72.28C148.7 72.56 150.21 73.91 152.94 76.34C153.58 75.62 158.71 69.87 159.35 69.15C156.61 66.72 155.1 65.37 154.8 65.1C155.89 63.18 156.7 61.12 157.22 58.99C157.62 59.01 159.66 59.06 163.31 59.18C163.33 58.54 163.43 55.33 163.6 49.56C159.81 49.44 157.78 49.38 157.51 49.38ZM128.73 42.69C134.69 39.48 142.16 41.72 145.38 47.68C148.58 53.65 146.35 61.12 140.39 64.33C134.41 67.54 126.94 65.3 123.73 59.34C120.52 53.37 122.76 45.9 128.73 42.69Z" id="a4LA63s0xt"></path></defs><g><g><g><use xlink:href="#b1Riz2BPxr" opacity="1" fill="#cfcfcf" fill-opacity="1"></use><g><use xlink:href="#b1Riz2BPxr" opacity="1" fill-opacity="0" stroke="#000000" stroke-width="1" stroke-opacity="0"></use></g></g><g><use xlink:href="#a2xVsO8sJ" opacity="1" fill="#cfcfcf" fill-opacity="1"></use><g><use xlink:href="#a2xVsO8sJ" opacity="1" fill-opacity="0" stroke="#000000" stroke-width="1" stroke-opacity="0"></use></g></g><g><use xlink:href="#bHgp1A6" opacity="1" fill="#cfcfcf" fill-opacity="1"></use><g><use xlink:href="#bHgp1A6" opacity="1" fill-opacity="0" stroke="#000000" stroke-width="1" stroke-opacity="0"></use></g></g><g><use xlink:href="#c4c7IIchwn" opacity="1" fill="#cfcfcf" fill-opacity="1"></use><g><use xlink:href="#c4c7IIchwn" opacity="1" fill-opacity="0" stroke="#000000" stroke-width="1" stroke-opacity="0"></use></g></g><g><use xlink:href="#a8eoiEaKx" opacity="1" fill="#cfcfcf" fill-opacity="1"></use><g><use xlink:href="#a8eoiEaKx" opacity="1" fill-opacity="0" stroke="#000000" stroke-width="1" stroke-opacity="0"></use></g></g><g><use xlink:href="#a4LA63s0xt" opacity="1" fill="#cfcfcf" fill-opacity="1"></use><g><use xlink:href="#a4LA63s0xt" opacity="1" fill-opacity="0" stroke="#000000" stroke-width="1" stroke-opacity="0"></use></g></g></g></g></svg>