<?xml version="1.0" encoding="UTF-8" standalone="no"?>
<!DOCTYPE svg PUBLIC "-//W3C//DTD SVG 1.1//EN" "http://www.w3.org/Graphics/SVG/1.1/DTD/svg11.dtd">
<svg version="1.1" xmlns="http://www.w3.org/2000/svg" xmlns:xlink="http://www.w3.org/1999/xlink" preserveAspectRatio="xMidYMid meet" viewBox="0 0 42 46" width="42" height="46"><defs><path d="M41.49 20.01C40.96 19.49 36.76 15.29 36.24 14.76C35.55 14.08 34.45 14.08 33.76 14.76C33.08 15.45 33.08 16.55 33.76 17.24C33.91 17.39 34.67 18.14 36.03 19.5C30.16 19.5 26.9 19.5 26.25 19.5C25.28 19.5 24.5 20.28 24.5 21.25C24.5 22.22 25.28 23 26.25 23C26.9 23 30.16 23 36.03 23C34.67 24.36 33.91 25.11 33.76 25.26C33.08 25.95 33.08 27.05 33.76 27.74C34.11 28.08 34.55 28.25 35 28.25C35.45 28.25 35.9 28.08 36.24 27.74C36.76 27.21 40.96 23.01 41.49 22.49C41.65 22.33 41.78 22.13 41.87 21.92C42.04 21.49 42.04 21.01 41.87 20.58C41.78 20.37 41.65 20.17 41.49 20.01Z" id="dHMs3HctT"></path><path d="M28 28.25C28 28.83 28 31.75 28 37L21 37C21 20.2 21 10.87 21 9C21 8.23 20.49 7.55 19.75 7.32C19.35 7.2 17.32 6.59 13.68 5.5L28 5.5C28 10.75 28 13.67 28 14.25C28 15.22 28.78 16 29.75 16C30.72 16 31.5 15.22 31.5 14.25C31.5 13.2 31.5 4.8 31.5 3.75C31.5 2.78 30.72 2 29.75 2C26.95 2 4.55 2 1.75 2C1.69 2 1.63 2.03 1.57 2.03C1.49 2.04 1.41 2.06 1.33 2.08C1.15 2.12 0.98 2.19 0.83 2.29C0.79 2.32 0.74 2.32 0.71 2.35C0.69 2.36 0.69 2.38 0.67 2.39C0.48 2.54 0.32 2.72 0.21 2.94C0.18 2.99 0.18 3.04 0.16 3.09C0.1 3.22 0.04 3.35 0.02 3.5C0.01 3.55 0.03 3.6 0.03 3.65C0.02 3.68 0 3.72 0 3.75C0 7.25 0 35.25 0 38.75C0 39.58 0.59 40.3 1.41 40.47C3.16 40.82 17.16 43.62 18.91 43.97C19.02 43.99 19.14 44 19.25 44C19.65 44 20.05 43.86 20.36 43.6C20.76 43.27 21 42.78 21 42.25C21 42.13 21 41.55 21 40.5C26.25 40.5 29.17 40.5 29.75 40.5C30.72 40.5 31.5 39.72 31.5 38.75C31.5 37.7 31.5 29.3 31.5 28.25C31.5 27.28 30.72 26.5 29.75 26.5C28.78 26.5 28 27.28 28 28.25Z" id="l4uKAGb3KG"></path></defs><g><g><g><use xlink:href="#dHMs3HctT" opacity="1" fill="#64ffda" fill-opacity="1"></use><g><use xlink:href="#dHMs3HctT" opacity="1" fill-opacity="0" stroke="#000000" stroke-width="1" stroke-opacity="0"></use></g></g><g><use xlink:href="#l4uKAGb3KG" opacity="1" fill="#64ffda" fill-opacity="1"></use><g><use xlink:href="#l4uKAGb3KG" opacity="1" fill-opacity="0" stroke="#000000" stroke-width="1" stroke-opacity="0"></use></g></g></g></g></svg>